PathFileType	4	(X/Y/Z)	RBDS010\RBDS010runT25.trc
DataRate	CameraRate	NumFrames	NumMarkers	Units	OrigDataRate	OrigDataStartFrame	OrigNumFrames
150.000000	150.000000	4	32	mm	150.000000	3375	4500
Frame#	Time	L.ASIS			L.Heel.Bottom			L.Heel.Lateral			L.Heel.Top			L.Iliac.Crest			L.MT5			L.PSIS			L.Shank.Bottom.Lateral			L.Shank.Bottom.Medial			L.Shank.Top.Lateral			L.Shank.Top.Medial			L.Thigh.Bottom.Lateral			L.Thigh.Bottom.Medial			L.Thigh.Top.Lateral			L.Thigh.Top.Medial			R.ASIS			R.ASY			R.Heel.Bottom			R.Heel.Lateral			R.Heel.Top			R.Iliac.Crest			R.MT1			R.MT5			R.PSIS			R.Shank.Bottom.Lateral			R.Shank.Bottom.Medial			R.Shank.Top.Lateral			R.Shank.Top.Medial			R.Thigh.Bottom.Lateral			R.Thigh.Bottom.Medial			R.Thigh.Top.Lateral			R.Thigh.Top.Medial			
		X1	Y1	Z1	X2	Y2	Z2	X3	Y3	Z3	X4	Y4	Z4	X5	Y5	Z5	X6	Y6	Z6	X7	Y7	Z7	X8	Y8	Z8	X9	Y9	Z9	X10	Y10	Z10	X11	Y11	Z11	X12	Y12	Z12	X13	Y13	Z13	X14	Y14	Z14	X15	Y15	Z15	X16	Y16	Z16	X17	Y17	Z17	X18	Y18	Z18	X19	Y19	Z19	X20	Y20	Z20	X21	Y21	Z21	X22	Y22	Z22	X23	Y23	Z23	X24	Y24	Z24	X25	Y25	Z25	X26	Y26	Z26	X27	Y27	Z27	X28	Y28	Z28	X29	Y29	Z29	X30	Y30	Z30	X31	Y31	Z31	X32	Y32	Z32	

3376	22.5	2275.728078211503	975.1900132709173	852.9822163926414	2068.610211123648	144.1437719316782	891.7763705732469	2103.143609874304	152.8566504874648	848.885622664573	2097.451003526739	186.4612407567744	898.2209447114575	2225.557543332383	1064.796740100855	823.2622186407202	2248.798584578816	85.83155049308915	824.3053824332785	2112.229400316196	1029.542670341758	926.6114652822674	2183.957598693009	245.0191313045014	843.6223955100585	2153.804522720699	261.1808327661053	885.4701426786268	2212.208237780581	319.3972666015183	833.4549056468754	2182.392475990226	336.6524095782322	874.9088036846637	2324.600900093001	603.9114175281306	819.0336989089137	2273.41683867174	575.6070692792867	861.5181639367701	2259.060359641986	691.6075165614049	802.9630186729777	2211.955716779346	666.3755965053447	845.0583081446922	2279.350270312287	961.9841212006761	1083.518600943973	1992.52808773083	97.94997502845271	1013.320884205752	1808.112284063719	120.6507960473156	989.0026170545851	1836.725425362437	127.147334478279	1036.288192297746	1836.728547802251	160.3053898945159	991.5109010946765	2225.494266388216	1047.502981432518	1121.716082043301	2001.138457154119	45.85037981663433	961.0276692418942	1973.65191593699	48.07579840199833	1072.203473259041	2116.999527994876	1028.958100900053	1025.208553364945	1932.695235078875	223.8602196377176	1052.992219320632	1896.104189660369	247.0026090468781	1024.519007011848	1963.62508342392	300.4823393285971	1072.787398741288	1924.624205555013	320.8597916797197	1041.088693187848	2113.660371038072	603.1515677038956	1110.795485773123	2052.243464673648	615.7610815933142	1070.936912287784	2122.194192931501	711.1185470753841	1126.475525590285	2065.575355007922	724.4593206519892	1089.926693185565	
3377	22.50666666666667	2276.271972270384	979.8597170842027	852.3996237606207	2090.652206077594	130.8968958886462	892.3366082819119	2124.96857029131	140.8924033437381	849.4124842955986	2117.120872356854	174.8516998301737	898.2223119863104	2225.434531387639	1070.081709145772	823.1441724868421	2274.193808387789	81.49203455778333	826.6532140610855	2113.589256898029	1034.232106272485	927.0881095594107	2200.019341656917	238.1996033245511	843.9766315912174	2168.857005783374	252.7739329233453	885.5820053213333	2223.669442525049	314.0730415191647	833.2219480072207	2192.766998315547	329.7527388231649	874.507835918514	2323.774147684817	607.7478932525843	819.3039622186851	2271.818911404267	579.1718923386048	860.6590812018437	2258.707928326079	695.951030973234	803.3077308937325	2211.038198430208	670.5003319197983	844.4974059274607	2281.242679983159	964.8859760766671	1082.096448841854	1980.740163247863	99.73312245563345	1014.06269819254	1797.599806610666	130.9367744006036	988.5183486402464	1826.279081737996	135.775652079143	1035.855982964346	1827.901922480188	169.1672617518928	991.3822143249895	2228.943222597903	1051.39580190941	1120.867334146745	1986.932586309426	46.94616840412227	961.447287709364	1959.144432217475	50.25489425190268	1072.299376518821	2119.165778661266	1033.243709573306	1025.804148361035	1923.028473871572	230.0547238633945	1053.324347111949	1886.792342043819	253.0301222999609	1024.249639048887	1954.021308560775	306.8030440404971	1072.704075466967	1915.249125835395	326.9820823870745	1040.619925970123	2107.632527827971	608.8295609102026	1110.518019857613	2046.366574198836	623.0515050637745	1070.926722797647	2118.997757337908	716.5423649592028	1126.304767541182	2062.615040892586	731.3268310367986	1089.921097188841	
3378	22.51333333333334	2276.859500540852	984.1181098717451	851.796839355769	2113.118561829751	118.4509720904787	893.250449476866	2147.170395043275	129.5412423664449	850.2358798653928	2137.165349682829	163.8759385725022	898.4202819834975	2225.534635055708	1075.075147337775	823.0095944750441	2299.45557570376	77.71737717334149	829.2875978699783	2115.056513128546	1038.631448645935	927.5209277476602	2216.110063719966	231.698676645118	844.4253782539146	2184.062838367959	244.6499301362943	885.8204821281182	2235.047175949516	308.749269623671	832.9807489499393	2203.164125530173	322.822060488432	874.1156228514087	2322.150162797639	610.8278635859092	819.4225214106598	2269.449967337791	582.1295797583049	859.7815527433798	2257.769004439364	699.6763701330702	803.5976277065041	2209.520527401138	674.1239577580249	843.9482466273137	2283.156092984867	967.6637106964127	1080.646366172566	1969.199198347674	101.7989632534195	1014.883531336912	1787.710678180956	141.5140494976716	988.0929533532749	1816.379808177861	144.6757732151246	1035.471340084639	1819.676855214442	178.2375365546173	991.3371827801249	2232.64164564609	1055.1483898802	1119.948107497375	1973.084401447218	48.38453672329665	961.9221124956703	1944.884039628162	52.81867647952812	1072.449682831476	2121.372513499813	1037.371017782513	1026.347112519094	1914.035343928628	236.2330527407464	1053.770234895027	1878.167063742573	259.0799824263608	1024.127073801866	1945.232754288386	313.0589255361605	1072.726732953485	1906.673638641204	333.09300782175	1040.283341811384	2102.229344584129	614.3228656956333	1110.344892591728	2041.166731469012	630.0250863844393	1070.939518449928	2116.145635464223	721.7671231397318	1126.240485125653	2060.0575315436	737.8470619218291	1089.931018884901	
3379	22.52	2277.489784422176	987.8960585275865	851.2212775719327	2135.802107285368	106.9902790232393	894.5817170659886	2169.537114227342	118.971573740659	851.4125364271349	2157.411950828226	153.7027769350164	898.8768224697077	2225.873267166988	1079.656030898213	822.864143896638	2324.364382964991	74.59031603465426	832.1471282741305	2116.587037589408	1042.676318379607	927.8764879340689	2232.091027612903	225.6271442141937	844.9886959347681	2199.294414203766	236.9449811756376	886.2192164637551	2246.245230775692	303.5237713526943	832.7648781567235	2213.507548657525	315.9790765305357	873.7807441099224	2319.739140281675	613.1194323611721	819.349744926359	2266.383276279917	584.4797429842715	858.9403441602951	2256.241863094428	702.7215299054894	803.7935326188076	2207.448687021495	677.2128562602852	843.448686288786	2285.012780290103	970.3018111666078	1079.248340366027	1957.863428881531	104.201259719793	1015.762821856814	1778.378991764131	152.2940471050304	987.7439747947445	1806.962596025039	153.7968456111273	1035.162890147996	1811.957456222736	187.4579445278163	991.387484451498	2236.436387548544	1058.708848353362	1118.982028279773	1959.581903321276	50.23877886156556	962.4341056909459	1930.879909923947	55.80247226736926	1072.634604333203	2123.542649149291	1041.288051505353	1026.80051207161	1905.671419841283	242.3584304179474	1054.306697730375	1870.180599455423	265.1427544147558	1024.148743908738	1937.261804855607	319.1850636208594	1072.835082668117	1898.901113443719	339.155932507802	1040.076007067466	2097.545593073476	619.5093974994548	1110.246092005872	2036.723722792749	636.5299560910214	1070.945284477083	2113.68565839004	726.6893153502755	1126.254290795914	2057.931673182444	743.8963177137379	1089.935945690286	
